<svg width="200" height="35" fill="none" xmlns="http://www.w3.org/2000/svg"><path d="M20.324 27H14.6l-9-11.808V27H.632V1.8H5.6v11.124L14.24 1.8h5.724L10.64 14.04 20.324 27zm3.467-7.092c.624 2.256 2.316 3.384 5.076 3.384 1.776 0 3.12-.6 4.032-1.8l3.744 2.16c-1.776 2.568-4.392 3.852-7.848 3.852-2.976 0-5.364-.9-7.164-2.7-1.8-1.8-2.7-4.068-2.7-6.804 0-2.712.888-4.968 2.664-6.768 1.776-1.824 4.056-2.736 6.84-2.736 2.64 0 4.812.912 6.516 2.736 1.728 1.824 2.592 4.08 2.592 6.768 0 .6-.06 1.236-.18 1.908H23.79zm-.072-3.6h9.18c-.264-1.224-.816-2.136-1.656-2.736-.816-.6-1.752-.9-2.808-.9-1.248 0-2.28.324-3.096.972-.816.624-1.356 1.512-1.62 2.664zm19.567-2.196c0 .48.312.876.936 1.188.648.288 1.428.552 2.34.792.912.216 1.824.504 2.736.864.912.336 1.68.912 2.304 1.728.648.816.972 1.836.972 3.06 0 1.848-.696 3.276-2.088 4.284-1.368.984-3.084 1.476-5.148 1.476-3.696 0-6.216-1.428-7.56-4.284l4.032-2.268c.528 1.56 1.704 2.34 3.528 2.34 1.656 0 2.484-.516 2.484-1.548 0-.48-.324-.864-.972-1.152-.624-.312-1.392-.588-2.304-.828-.912-.24-1.824-.54-2.736-.9a5.818 5.818 0 01-2.34-1.692c-.624-.792-.936-1.776-.936-2.952 0-1.776.648-3.168 1.944-4.176 1.32-1.032 2.952-1.548 4.896-1.548 1.464 0 2.796.336 3.996 1.008 1.2.648 2.148 1.584 2.844 2.808l-3.96 2.16c-.576-1.224-1.536-1.836-2.88-1.836-.6 0-1.104.132-1.512.396-.384.264-.576.624-.576 1.08zM71.076 27h-5.4l-6.552-8.172V27H54.48V1.8h4.644v15.12L65.316 9h5.544l-7.236 8.892L71.076 27zm3.542-20.16c-.768 0-1.44-.276-2.016-.828-.552-.576-.828-1.248-.828-2.016s.276-1.44.828-2.016c.576-.576 1.248-.864 2.016-.864.792 0 1.464.288 2.016.864.576.576.864 1.248.864 2.016s-.288 1.44-.864 2.016a2.744 2.744 0 01-2.016.828zM72.314 27V9h4.644v18h-4.644zm7.815 0V.72h4.644V27h-4.644zm19.55-18h4.968l-6.552 18c-.936 2.592-2.184 4.464-3.744 5.616-1.536 1.176-3.456 1.704-5.76 1.584v-4.32c1.248.024 2.232-.24 2.952-.792.744-.552 1.332-1.44 1.764-2.664L85.927 9h5.076l4.68 12.096L99.68 9zm19.075 0h4.644v18h-4.644v-2.124c-1.392 1.752-3.348 2.628-5.868 2.628-2.4 0-4.464-.912-6.192-2.736-1.704-1.848-2.556-4.104-2.556-6.768 0-2.664.852-4.908 2.556-6.732 1.728-1.848 3.792-2.772 6.192-2.772 2.52 0 4.476.876 5.868 2.628V9zm-8.568 12.672c.936.936 2.124 1.404 3.564 1.404s2.628-.468 3.564-1.404c.96-.96 1.44-2.184 1.44-3.672s-.48-2.7-1.44-3.636c-.936-.96-2.124-1.44-3.564-1.44s-2.628.48-3.564 1.44c-.936.936-1.404 2.148-1.404 3.636s.468 2.712 1.404 3.672zm21.203 4.896c-.6.6-1.32.9-2.16.9-.84 0-1.56-.3-2.16-.9-.6-.6-.9-1.32-.9-2.16 0-.84.3-1.56.9-2.16.6-.6 1.32-.9 2.16-.9.84 0 1.56.3 2.16.9.6.6.9 1.32.9 2.16 0 .84-.3 1.56-.9 2.16z" fill="#0F1435"/><path d="M143.65 27.504c-2.712 0-4.98-.912-6.804-2.736-1.8-1.824-2.7-4.08-2.7-6.768 0-2.688.9-4.944 2.7-6.768 1.824-1.824 4.092-2.736 6.804-2.736 1.752 0 3.348.42 4.788 1.26 1.44.84 2.532 1.968 3.276 3.384l-3.996 2.34a4.046 4.046 0 00-1.656-1.764c-.72-.432-1.536-.648-2.448-.648-1.392 0-2.544.468-3.456 1.404-.912.912-1.368 2.088-1.368 3.528 0 1.416.456 2.592 1.368 3.528.912.912 2.064 1.368 3.456 1.368.936 0 1.764-.204 2.484-.612a4.046 4.046 0 001.656-1.764l4.032 2.304c-.792 1.416-1.908 2.556-3.348 3.42-1.44.84-3.036 1.26-4.788 1.26zm24.567-2.736c-1.848 1.824-4.104 2.736-6.768 2.736-2.664 0-4.92-.912-6.768-2.736-1.824-1.848-2.736-4.104-2.736-6.768 0-2.664.912-4.908 2.736-6.732 1.848-1.848 4.104-2.772 6.768-2.772 2.664 0 4.92.924 6.768 2.772 1.848 1.824 2.772 4.068 2.772 6.732 0 2.664-.924 4.92-2.772 6.768zm-10.26-3.204c.936.936 2.1 1.404 3.492 1.404s2.556-.468 3.492-1.404c.936-.936 1.404-2.124 1.404-3.564s-.468-2.628-1.404-3.564c-.936-.936-2.1-1.404-3.492-1.404s-2.556.468-3.492 1.404c-.912.936-1.368 2.124-1.368 3.564s.456 2.628 1.368 3.564zm35.127-13.068c2.064 0 3.708.672 4.932 2.016 1.248 1.344 1.872 3.144 1.872 5.4V27h-4.644V16.236c0-1.08-.264-1.92-.792-2.52-.528-.6-1.272-.9-2.232-.9-1.056 0-1.884.348-2.484 1.044-.576.696-.864 1.704-.864 3.024V27h-4.644V16.236c0-1.08-.264-1.92-.792-2.52-.528-.6-1.272-.9-2.232-.9-1.032 0-1.86.348-2.484 1.044-.6.696-.9 1.704-.9 3.024V27h-4.644V9h4.644v1.908c1.08-1.608 2.748-2.412 5.004-2.412 2.208 0 3.84.864 4.896 2.592 1.2-1.728 2.988-2.592 5.364-2.592z" fill="#9498AB"/></svg>